<?xml version="1.0" standalone="no"?>
<!DOCTYPE svg PUBLIC "-//W3C//DTD SVG 20010904//EN"
 "http://www.w3.org/TR/2001/REC-SVG-20010904/DTD/svg10.dtd">
<svg version="1.0" xmlns="http://www.w3.org/2000/svg"
 width="1024.000000pt" height="1024.000000pt" viewBox="0 0 1024.000000 1024.000000"
 preserveAspectRatio="xMidYMid meet">

<g transform="translate(0.000000,1024.000000) scale(0.100000,-0.100000)"
fill="#000000" stroke="none">
<path d="M4993 8373 l-43 -4 0 -1040 0 -1039 215 0 215 0 0 1045 0 1045 -172
-2 c-95 -1 -192 -3 -215 -5z"/>
<path d="M4525 8105 c-157 -41 -273 -83 -409 -149 -128 -62 -286 -159 -286
-176 0 -4 7 -11 16 -14 9 -3 198 -6 420 -6 l404 0 0 185 0 185 -27 0 c-16 -1
-68 -12 -118 -25z"/>
<path d="M5660 7943 l0 -188 426 3 c331 2 425 5 422 15 -12 35 -360 221 -508
270 -79 27 -239 70 -302 81 l-38 7 0 -188z"/>
<path d="M3566 7714 c-245 -43 -442 -211 -523 -447 -26 -77 -28 -93 -28 -242
0 -121 5 -180 19 -240 19 -85 86 -269 94 -261 2 3 15 35 27 71 13 37 43 100
66 141 45 78 168 219 211 243 22 11 26 21 30 80 8 109 54 175 154 217 32 14
87 18 331 22 l293 5 2 -439 3 -439 210 0 210 0 3 648 2 647 -377 1 c-208 1
-439 3 -513 4 -80 1 -167 -3 -214 -11z"/>
<path d="M5660 7403 l0 -323 210 0 210 0 0 88 c0 48 3 98 7 110 l6 24 286 -4
c273 -3 288 -4 336 -26 94 -43 137 -107 140 -208 2 -59 3 -62 55 -110 137
-126 205 -226 255 -374 l22 -65 21 49 c100 225 130 488 76 672 -30 105 -59
160 -124 242 -88 108 -217 189 -361 228 -56 15 -127 17 -601 18 l-538 1 0
-322z"/>
<path d="M3746 6824 c-200 -48 -360 -208 -401 -401 -43 -202 7 -375 149 -517
76 -76 153 -122 261 -153 55 -16 157 -18 1330 -21 1308 -3 1419 0 1526 37 80
27 181 94 235 154 55 63 121 193 134 266 33 177 -19 349 -144 479 -74 77 -157
125 -261 152 -72 18 -111 20 -497 20 l-418 0 0 -210 0 -209 394 -3 c381 -3
396 -4 423 -24 92 -67 70 -193 -39 -223 -32 -9 -362 -11 -1303 -9 -1196 3
-1262 4 -1288 21 -64 42 -86 130 -46 181 31 40 57 50 144 56 l80 5 3 208 2
207 -112 -1 c-62 0 -139 -7 -172 -15z"/>
<path d="M3108 6053 c-45 -135 -53 -188 -52 -373 0 -141 4 -197 23 -289 32
-166 81 -306 166 -476 147 -295 376 -550 693 -769 45 -32 82 -56 82 -54 1 2 3
109 7 238 l5 235 -65 53 c-160 129 -287 291 -390 498 -64 128 -153 394 -132
394 3 0 22 -10 43 -23 71 -45 178 -90 272 -114 81 -22 124 -26 288 -30 l192
-5 0 -799 0 -798 208 -3 c114 -2 210 -2 215 0 4 2 7 392 7 868 l0 864 -292 0
c-424 1 -537 14 -693 82 -162 70 -338 215 -423 346 -20 32 -55 97 -77 144 -22
48 -43 87 -46 88 -3 0 -17 -35 -31 -77z"/>
<path d="M7160 6119 c0 -22 -78 -177 -121 -240 -58 -86 -158 -185 -249 -245
-170 -113 -298 -150 -557 -158 l-143 -4 0 119 0 119 -215 0 -215 0 0 -989 0
-989 213 3 212 4 0 799 0 800 190 5 c146 4 209 10 273 26 97 25 208 70 275
113 26 17 50 29 52 26 8 -7 -23 -121 -59 -222 -85 -234 -227 -449 -411 -623
l-105 -100 0 -236 0 -237 81 55 c500 339 795 799 875 1365 26 185 5 402 -56
563 -19 51 -40 75 -40 46z"/>
<path d="M4952 4643 l3 -1068 211 -3 212 -2 4 67 c7 96 8 1957 1 2021 l-6 52
-213 0 -214 0 2 -1067z"/>
<path d="M6159 3310 c-150 -19 -289 -112 -364 -245 -89 -158 -87 -362 5 -505
43 -67 137 -153 202 -183 157 -74 375 -56 505 43 62 46 135 144 161 213 12 32
22 86 24 128 l3 74 -235 0 -235 0 -3 -50 c-2 -27 -1 -68 3 -90 l5 -40 102 3
c55 2 105 -1 109 -5 15 -15 -57 -89 -103 -108 -62 -25 -171 -23 -234 4 -230
102 -226 441 5 544 36 16 60 19 126 15 83 -4 126 -21 182 -71 l21 -19 76 63
76 63 -33 34 c-93 97 -253 150 -398 132z"/>
<path d="M7268 3310 c-116 -20 -188 -56 -273 -139 -317 -308 -102 -839 340
-843 201 -2 371 104 461 286 36 73 39 87 42 181 3 76 0 118 -13 161 -52 182
-211 324 -395 353 -73 12 -94 12 -162 1z m209 -226 c57 -27 101 -72 135 -137
32 -62 32 -185 0 -247 -58 -110 -153 -171 -273 -172 -155 -1 -275 113 -287
273 -16 231 215 385 425 283z"/>
<path d="M2354 3277 c-3 -8 -4 -49 -2 -93 l3 -79 153 -3 152 -3 0 -379 0 -380
95 0 95 0 1 248 c1 136 3 297 5 357 2 61 4 120 4 133 0 22 1 22 144 22 l143 0
6 87 c3 47 4 90 1 95 -3 4 -183 8 -400 8 -320 0 -396 -3 -400 -13z"/>
<path d="M3382 2818 l3 -473 95 0 95 0 3 188 2 187 180 0 180 0 2 -187 3 -188
95 0 95 0 3 473 2 472 -100 0 -100 0 0 -190 0 -190 -180 0 -180 0 0 190 0 190
-100 0 -100 0 2 -472z"/>
<path d="M4375 3278 c-3 -7 -4 -220 -3 -473 l3 -460 98 -3 97 -3 0 476 0 475
-95 0 c-67 0 -97 -4 -100 -12z"/>
<path d="M5043 3143 c-214 -513 -312 -751 -318 -775 l-7 -28 101 0 102 0 13
33 c8 17 28 67 46 110 l32 77 166 -2 167 -3 44 -107 45 -108 104 0 c104 0 104
0 98 23 -3 13 -68 173 -144 357 -76 184 -160 388 -187 453 l-48 117 -76 0 -77
0 -61 -147z m186 -295 c23 -53 41 -99 41 -102 0 -4 -40 -6 -90 -6 -53 0 -90 4
-90 10 0 5 15 47 34 92 18 46 36 92 40 102 10 27 18 14 65 -96z"/>
<path d="M4003 2113 l-43 -4 0 -145 0 -144 34 0 c30 0 33 2 28 25 -6 35 6 75
23 75 8 0 31 -22 51 -50 31 -43 41 -50 70 -50 19 0 34 2 34 5 0 3 -13 26 -29
52 l-30 47 24 22 c31 29 40 75 21 112 -16 31 -79 63 -119 60 -12 -1 -41 -3
-64 -5z m115 -95 c3 -23 -2 -30 -24 -39 -16 -5 -39 -8 -51 -4 -19 4 -23 12
-23 41 l0 35 48 -3 c43 -3 47 -5 50 -30z"/>
<path d="M4420 2102 c-81 -40 -108 -157 -53 -223 51 -60 125 -74 200 -38 49
24 51 30 22 58 -22 20 -22 20 -50 1 -15 -11 -36 -20 -47 -20 -28 0 -78 44 -86
75 -9 35 17 79 53 95 27 11 35 10 66 -9 35 -20 37 -20 60 -4 32 23 28 32 -25
60 -52 27 -93 29 -140 5z"/>
<path d="M5740 1971 l0 -151 101 0 100 0 -3 28 c-3 26 -5 27 -70 30 -68 3 -68
3 -68 32 0 29 1 29 63 32 59 3 62 4 62 28 0 24 -3 25 -62 28 -59 3 -63 4 -63
27 0 23 4 24 68 27 65 3 67 4 70 31 l3 27 -85 0 c-46 0 -91 3 -100 6 -14 5
-16 -11 -16 -145z"/>
<path d="M6175 2106 c-17 -7 -43 -28 -58 -45 -22 -27 -27 -42 -27 -88 0 -70
25 -113 80 -138 46 -21 124 -16 165 11 30 20 32 35 5 59 -18 16 -20 16 -46 -4
-36 -28 -68 -26 -103 7 -41 37 -48 71 -20 106 34 43 65 50 112 27 39 -19 40
-19 60 -1 17 16 18 22 7 35 -34 41 -119 56 -175 31z"/>
<path d="M3572 1984 c-72 -173 -71 -171 -28 -166 21 2 36 10 36 17 0 30 31 45
90 45 55 0 58 -2 70 -30 10 -25 18 -30 47 -30 42 0 43 -5 -38 165 -58 122 -61
125 -92 125 -31 0 -33 -2 -85 -126z m108 -4 l20 -40 -35 0 c-19 0 -35 4 -35 9
0 12 21 71 26 71 2 0 13 -18 24 -40z"/>
<path d="M4760 1965 c0 -119 3 -145 14 -145 8 0 21 -3 30 -6 14 -5 16 4 16 60
l0 66 60 0 60 0 0 -58 c0 -32 2 -61 5 -64 3 -2 18 -3 35 0 l30 4 0 144 0 144
-35 0 -35 0 6 -55 7 -55 -68 0 -68 0 6 55 6 55 -35 0 -34 0 0 -145z"/>
<path d="M5161 1965 l0 -145 34 0 35 0 0 145 0 145 -34 0 -34 0 -1 -145z"/>
<path d="M5365 2080 c0 -28 3 -30 36 -30 l36 0 6 -67 c4 -38 7 -90 7 -118 0
-49 1 -50 30 -50 l30 0 0 118 0 117 40 0 c38 0 40 2 40 30 l0 30 -112 0 -113
0 0 -30z"/>
<path d="M6500 2080 c0 -28 2 -30 40 -30 l40 0 0 -115 0 -115 36 0 36 0 -4
115 -3 115 38 0 c35 0 37 2 37 30 l0 30 -110 0 -110 0 0 -30z"/>
<path d="M2627 2013 c-13 -12 -7 -41 9 -47 9 -4 158 -6 330 -5 265 1 314 3
318 16 17 44 24 43 -322 43 -181 0 -332 -3 -335 -7z"/>
<path d="M6980 1990 l0 -30 348 4 c191 2 355 5 365 5 11 1 17 9 17 26 l0 25
-365 0 -365 0 0 -30z"/>
</g>
</svg>
